<svg width="66" height="57" viewBox="0 0 66 57" fill="none" xmlns="http://www.w3.org/2000/svg">
<path fill-rule="evenodd" clip-rule="evenodd" d="M36.6844 18.761C36.6846 18.7598 36.6849 18.7585 36.6852 18.7572L36.7839 18.3889C37.7775 13.9438 35.0775 9.50209 30.6628 8.31916C26.248 7.13623 21.6889 9.63283 20.3269 13.9792C20.2722 14.0964 20.2385 14.2222 20.2273 14.351L22.652 15.0007C22.7067 14.8836 22.7404 14.7578 22.7517 14.629C23.598 11.4702 26.8537 9.59801 30.0233 10.4473C33.193 11.2966 35.0764 14.5458 34.23 17.7046C34.1975 17.8322 34.1881 17.9646 34.2021 18.0956L34.2203 18.1007L20.0979 14.3166C17.9869 13.751 15.3568 14.5399 13.6979 18.1106L9.68237 27.9719C6.62654 35.1835 9.98276 38.0904 15.0202 39.4401L28.6765 43.0993C33.6993 44.4452 38.1677 42.7355 39.0187 35.8326L40.4864 25.2885C40.6904 21.4404 38.9081 19.3568 36.8262 18.7989L36.6844 18.761Z" fill="#0FDFE5"/>
<g opacity="0.5" filter="url(#filter0_f_1_481)">
<path d="M21.8327 24.9436C22.8282 22.36 25.6122 20.9437 28.2866 21.6603C30.9609 22.3769 32.6638 24.9955 32.2341 27.7306L31.6163 31.6638C31.078 35.0905 27.6883 37.2948 24.3379 36.397C20.9874 35.4992 19.154 31.8954 20.4012 28.6587L21.8327 24.9436Z" fill="#0FDFE5"/>
</g>
<g filter="url(#filter1_bd_1_481)">
<path fill-rule="evenodd" clip-rule="evenodd" d="M48.405 13.249C48.4524 13.4012 49.2109 16.5573 49.1855 16.7147L46.3353 17.4784C46.2498 17.3613 45.4088 14.3376 45.2323 13.7029L45.2323 13.7029L45.2013 13.5918C44.1823 9.78885 40.2628 7.53489 36.4467 8.55739C32.6307 9.57989 30.3633 13.4917 31.3823 17.2946C31.4481 17.4356 32.4164 21.0493 32.4299 21.2044L29.5106 21.9866C29.4448 21.8455 28.4765 18.2318 28.463 18.0768C27.2668 12.7252 30.5173 7.37775 35.8324 5.95358C41.1474 4.52942 46.6362 7.53515 48.276 12.7679L48.405 13.249ZM36.2606 28.2547C35.2925 28.5141 34.2914 27.9166 34.0244 26.9203C33.7574 25.9239 34.3258 24.9059 35.2938 24.6466C36.2618 24.3872 37.263 24.9846 37.53 25.981C37.797 26.9773 37.2286 27.9953 36.2606 28.2547ZM45.5049 23.8441C45.7718 24.8405 46.773 25.4379 47.7411 25.1785C48.7091 24.9191 49.2774 23.9011 49.0104 22.9048C48.7435 21.9084 47.7423 21.311 46.7743 21.5704C45.8062 21.8298 45.2379 22.8477 45.5049 23.8441Z" fill="url(#paint0_linear_1_481)"/>
</g>
<g filter="url(#filter2_b_1_481)">
<mask id="path-4-outside-1_1_481" maskUnits="userSpaceOnUse" x="20.2595" y="10.4499" width="46.2121" height="41.9695" fill="black">
<rect fill="white" x="20.2595" y="10.4499" width="46.2121" height="41.9695"/>
<path fill-rule="evenodd" clip-rule="evenodd" d="M61.961 30.2052L57.1442 18.3281C55.0405 14.1932 51.928 13.0936 49.4215 13.7652L29.2819 19.1616C26.7404 19.8426 24.4731 22.2484 24.8928 26.9699L26.6423 39.6688C27.7973 49.0273 33.0464 50.0378 39.1111 48.4128L55.5523 44.0074C61.5994 42.387 65.2291 37.9147 61.961 30.2052ZM36.3132 28.2215C35.3452 28.4809 34.344 27.8834 34.077 26.8871C33.8101 25.8907 34.3784 24.8727 35.3464 24.6133C36.3145 24.354 37.3157 24.9514 37.5826 25.9478C37.8496 26.9441 37.2813 27.9621 36.3132 28.2215ZM45.5575 23.8114C45.8245 24.8077 46.8257 25.4052 47.7937 25.1458C48.7617 24.8864 49.3301 23.8684 49.0631 22.8721C48.7961 21.8757 47.7949 21.2783 46.8269 21.5377C45.8589 21.7971 45.2905 22.815 45.5575 23.8114Z"/>
</mask>
<path fill-rule="evenodd" clip-rule="evenodd" d="M61.961 30.2052L57.1442 18.3281C55.0405 14.1932 51.928 13.0936 49.4215 13.7652L29.2819 19.1616C26.7404 19.8426 24.4731 22.2484 24.8928 26.9699L26.6423 39.6688C27.7973 49.0273 33.0464 50.0378 39.1111 48.4128L55.5523 44.0074C61.5994 42.387 65.2291 37.9147 61.961 30.2052ZM36.3132 28.2215C35.3452 28.4809 34.344 27.8834 34.077 26.8871C33.8101 25.8907 34.3784 24.8727 35.3464 24.6133C36.3145 24.354 37.3157 24.9514 37.5826 25.9478C37.8496 26.9441 37.2813 27.9621 36.3132 28.2215ZM45.5575 23.8114C45.8245 24.8077 46.8257 25.4052 47.7937 25.1458C48.7617 24.8864 49.3301 23.8684 49.0631 22.8721C48.7961 21.8757 47.7949 21.2783 46.8269 21.5377C45.8589 21.7971 45.2905 22.815 45.5575 23.8114Z" fill="#0FDFE5" fill-opacity="0.7"/>
<path d="M57.1442 18.3281L58.0709 17.9523C58.0602 17.926 58.0484 17.9001 58.0355 17.8747L57.1442 18.3281ZM61.961 30.2052L61.0343 30.581C61.0363 30.5859 61.0383 30.5907 61.0403 30.5955L61.961 30.2052ZM24.8928 26.9699L23.8968 27.0584C23.8982 27.0744 23.9 27.0904 23.9022 27.1063L24.8928 26.9699ZM26.6423 39.6688L27.6349 39.5463L27.633 39.5324L26.6423 39.6688ZM39.1111 48.4128L39.3699 49.3787L39.1111 48.4128ZM55.5523 44.0074L55.2934 43.0414L55.5523 44.0074ZM34.077 26.8871L33.1111 27.1459L33.1111 27.1459L34.077 26.8871ZM36.3132 28.2215L36.0544 27.2555L36.0544 27.2555L36.3132 28.2215ZM35.3464 24.6133L35.6053 25.5793L35.6053 25.5793L35.3464 24.6133ZM56.2175 18.704L61.0343 30.581L62.8877 29.8294L58.0709 17.9523L56.2175 18.704ZM49.6803 14.7312C51.6311 14.2084 54.3131 14.9687 56.2529 18.7816L58.0355 17.8747C55.768 13.4177 52.2248 11.9788 49.1626 12.7993L49.6803 14.7312ZM29.5407 20.1275L49.6803 14.7312L49.1626 12.7993L29.0231 18.1957L29.5407 20.1275ZM25.8889 26.8813C25.6946 24.6953 26.1292 23.1484 26.8147 22.0965C27.4999 21.045 28.4856 20.4102 29.5407 20.1275L29.0231 18.1957C27.5366 18.594 26.1179 19.5025 25.1391 21.0046C24.1605 22.5062 23.6714 24.5229 23.8968 27.0584L25.8889 26.8813ZM27.633 39.5324L25.8835 26.8334L23.9022 27.1063L25.6517 39.8053L27.633 39.5324ZM38.8523 47.4468C35.8932 48.2397 33.3857 48.3119 31.5179 47.2836C29.7017 46.2837 28.1929 44.0689 27.6348 39.5463L25.6498 39.7913C26.2467 44.6273 27.94 47.5969 30.5533 49.0356C33.1149 50.4459 36.2643 50.2108 39.3699 49.3787L38.8523 47.4468ZM55.2934 43.0414L38.8523 47.4468L39.3699 49.3787L55.8111 44.9733L55.2934 43.0414ZM61.0403 30.5955C62.5962 34.2657 62.4363 36.9733 61.3734 38.9083C60.296 40.8696 58.1635 42.2724 55.2934 43.0414L55.8111 44.9733C58.9881 44.122 61.6941 42.4785 63.1263 39.8712C64.573 37.2375 64.594 33.8542 62.8817 29.8149L61.0403 30.5955ZM33.1111 27.1459C33.514 28.6493 35.0445 29.5967 36.5721 29.1874L36.0544 27.2555C35.6459 27.365 35.1741 27.1176 35.043 26.6283L33.1111 27.1459ZM35.0876 23.6474C33.5601 24.0567 32.7083 25.6425 33.1111 27.1459L35.043 26.6283C34.9119 26.1389 35.1968 25.6887 35.6053 25.5793L35.0876 23.6474ZM38.5485 25.6889C38.1457 24.1856 36.6152 23.2381 35.0876 23.6474L35.6053 25.5793C36.0138 25.4698 36.4856 25.7172 36.6167 26.2066L38.5485 25.6889ZM36.5721 29.1874C38.0996 28.7781 38.9514 27.1923 38.5485 25.6889L36.6167 26.2066C36.7478 26.6959 36.4629 27.1461 36.0544 27.2555L36.5721 29.1874ZM47.5349 24.1799C47.1264 24.2893 46.6546 24.0419 46.5234 23.5526L44.5916 24.0702C44.9944 25.5736 46.525 26.521 48.0525 26.1117L47.5349 24.1799ZM48.0972 23.1309C48.2283 23.6202 47.9434 24.0704 47.5349 24.1799L48.0525 26.1117C49.5801 25.7024 50.4319 24.1166 50.029 22.6133L48.0972 23.1309ZM47.0857 22.5036C47.4942 22.3941 47.9661 22.6416 48.0972 23.1309L50.029 22.6133C49.6262 21.1099 48.0957 20.1624 46.5681 20.5717L47.0857 22.5036ZM46.5234 23.5526C46.3923 23.0632 46.6772 22.6131 47.0857 22.5036L46.5681 20.5717C45.0405 20.9811 44.1888 22.5668 44.5916 24.0702L46.5234 23.5526Z" fill="url(#paint1_linear_1_481)" mask="url(#path-4-outside-1_1_481)"/>
</g>
<defs>
<filter id="filter0_f_1_481" x="0.00839996" y="1.47485" width="52.2919" height="55.123" filterUnits="userSpaceOnUse" color-interpolation-filters="sRGB">
<feFlood flood-opacity="0" result="BackgroundImageFix"/>
<feBlend mode="normal" in="SourceGraphic" in2="BackgroundImageFix" result="shape"/>
<feGaussianBlur stdDeviation="10" result="effect1_foregroundBlur_1_481"/>
</filter>
<filter id="filter1_bd_1_481" x="13.2155" y="-9.39966" width="50.9706" height="52.7148" filterUnits="userSpaceOnUse" color-interpolation-filters="sRGB">
<feFlood flood-opacity="0" result="BackgroundImageFix"/>
<feGaussianBlur in="BackgroundImage" stdDeviation="7.5"/>
<feComposite in2="SourceAlpha" operator="in" result="effect1_backgroundBlur_1_481"/>
<feColorMatrix in="SourceAlpha" type="matrix" values="0 0 0 0 0 0 0 0 0 0 0 0 0 0 0 0 0 0 127 0" result="hardAlpha"/>
<feOffset dx="5" dy="5"/>
<feGaussianBlur stdDeviation="5"/>
<feColorMatrix type="matrix" values="0 0 0 0 0.15375 0 0 0 0 0.522433 0 0 0 0 0.9 0 0 0 0.5 0"/>
<feBlend mode="normal" in2="effect1_backgroundBlur_1_481" result="effect2_dropShadow_1_481"/>
<feBlend mode="normal" in="SourceGraphic" in2="effect2_dropShadow_1_481" result="shape"/>
</filter>
<filter id="filter2_b_1_481" x="-0.157478" y="-11.4199" width="88.3476" height="85.4685" filterUnits="userSpaceOnUse" color-interpolation-filters="sRGB">
<feFlood flood-opacity="0" result="BackgroundImageFix"/>
<feGaussianBlur in="BackgroundImage" stdDeviation="12"/>
<feComposite in2="SourceAlpha" operator="in" result="effect1_backgroundBlur_1_481"/>
<feBlend mode="normal" in="SourceGraphic" in2="effect1_backgroundBlur_1_481" result="shape"/>
</filter>
<linearGradient id="paint0_linear_1_481" x1="55" y1="-2.5" x2="30.7333" y2="-4.03229" gradientUnits="userSpaceOnUse">
<stop stop-color="white"/>
<stop offset="1" stop-color="white" stop-opacity="0.95"/>
</linearGradient>
<linearGradient id="paint1_linear_1_481" x1="28.0956" y1="23.1941" x2="53.2391" y2="45.1016" gradientUnits="userSpaceOnUse">
<stop stop-color="white" stop-opacity="0.93"/>
<stop offset="1" stop-color="white" stop-opacity="0.67"/>
</linearGradient>
</defs>
</svg>
