<svg width="169" height="30" viewBox="0 0 169 30" fill="none" xmlns="http://www.w3.org/2000/svg">
<g opacity="0.5">
<path d="M33.895 8.37544C27.7941 8.37544 23.0271 13.0068 23.0271 19.2067C23.0271 25.4068 27.6736 29.9985 33.895 29.9985C40.1164 29.9985 44.8437 25.3275 44.8437 19.1671C44.8437 13.0464 40.1972 8.37544 33.895 8.37544ZM33.9362 25.5303C30.4619 25.5303 27.916 22.832 27.916 19.2083C27.916 15.5435 30.4208 12.8467 33.895 12.8467C37.4104 12.8467 39.9548 15.5846 39.9548 19.2083C39.9548 22.832 37.4104 25.5303 33.9362 25.5303ZM46.1761 13.0875H49.2066V29.5975H54.0544V8.77791H46.1761V13.0875ZM10.8268 12.8452C13.3726 12.8452 15.3925 14.4154 16.1594 16.7508H21.2907C20.3608 11.7582 16.2402 8.37544 10.8679 8.37544C4.767 8.37544 0 13.0068 0 19.2083C0 25.4098 4.64658 30 10.8679 30C16.1197 30 20.3212 26.6172 21.2511 21.5834H16.1594C15.4322 23.9189 13.4122 25.5303 10.8664 25.5303C7.35098 25.5303 4.88742 22.832 4.88742 19.2083C4.88897 15.5435 7.31287 12.8452 10.8268 12.8452ZM138.287 17.1945L134.732 16.6716C133.036 16.4307 131.824 15.8667 131.824 14.5373C131.824 13.0875 133.4 12.3634 135.54 12.3634C137.884 12.3634 139.379 13.3696 139.702 15.0206H144.389C143.863 10.8329 140.631 8.37694 135.662 8.37694C130.531 8.37694 127.138 10.9945 127.138 14.6989C127.138 18.2418 129.36 20.2968 133.844 20.9401L137.399 21.463C139.137 21.7038 140.106 22.3898 140.106 23.678C140.106 25.329 138.41 26.0135 136.066 26.0135C133.197 26.0135 131.581 24.8458 131.339 23.0744H126.572C127.017 27.1416 130.208 30 136.025 30C141.318 30 144.832 27.5837 144.832 23.4356C144.832 19.7312 142.288 17.7982 138.287 17.1945ZM51.6305 0.20123C49.853 0.20123 48.5194 1.48941 48.5194 3.26084C48.5194 5.03227 49.8516 6.32044 51.6305 6.32044C53.408 6.32044 54.742 5.03227 54.742 3.26084C54.742 1.48941 53.408 0.20123 51.6305 0.20123ZM122.775 15.9063C122.775 11.3969 120.028 8.37694 114.21 8.37694C108.716 8.37694 105.645 11.1561 105.039 15.4245H109.847C110.089 13.7736 111.382 12.4046 114.129 12.4046C116.595 12.4046 117.806 13.4915 117.806 14.8209C117.806 16.5527 115.583 16.9948 112.837 17.2768C109.12 17.6792 104.514 18.9674 104.514 23.8C104.514 27.5456 107.303 29.9603 111.747 29.9603C115.221 29.9603 117.402 28.5106 118.494 26.2148C118.656 28.2682 120.191 29.5975 122.333 29.5975H125.16V25.2894H122.776V15.9063H122.775ZM118.007 21.1413C118.007 23.9204 115.583 25.9739 112.634 25.9739C110.815 25.9739 109.28 25.2086 109.28 23.5988C109.28 21.5453 111.745 20.9813 114.007 20.7404C116.189 20.5392 117.401 20.0559 118.007 19.129V21.1413ZM92.273 8.37544C89.5655 8.37544 87.3033 9.50353 85.6875 11.3954V0H80.8397V29.5975H85.6064V26.8596C87.2222 28.8322 89.5261 30 92.273 30C98.0902 30 102.495 25.4098 102.495 19.2083C102.495 13.0068 98.0095 8.37544 92.273 8.37544ZM91.5459 25.5303C88.0716 25.5303 85.5258 22.832 85.5258 19.2083C85.5258 15.5846 88.1114 12.8467 91.5853 12.8467C95.1009 12.8467 97.5642 15.545 97.5642 19.2083C97.5642 22.832 95.0198 25.5303 91.5459 25.5303ZM69.2442 8.37544C66.0933 8.37544 64.0322 9.66361 62.8205 11.4762V8.77791H58.012V29.596H62.8598V18.2814C62.8598 15.0998 64.8797 12.8452 67.8694 12.8452C70.6575 12.8452 72.3938 14.8178 72.3938 17.6777V29.5975H77.2416V17.3164C77.2434 12.0799 74.5373 8.37544 69.2442 8.37544ZM167.941 18.5238C167.941 12.5647 163.578 8.37694 157.72 8.37694C151.499 8.37694 146.933 13.0479 146.933 19.2083C146.933 25.6919 151.822 30 157.801 30C162.851 30 166.81 27.0197 167.82 22.7923H162.769C162.042 24.6445 160.264 25.6919 157.88 25.6919C154.769 25.6919 152.425 23.7588 151.901 20.376H167.94V18.5238H167.941ZM152.184 16.9125C152.953 14.0129 155.134 12.6043 157.639 12.6043C160.386 12.6043 162.487 14.1745 162.972 16.9125H152.184Z" fill="white"/>
</g>
</svg>
