<svg width="167" height="24" viewBox="0 0 167 24" fill="none" xmlns="http://www.w3.org/2000/svg">
<path d="M4.34783 21.4203V12.058L4.17391 8.49281H4.46377L6.92754 12.145L14.087 21.4203H18.7246V2.00005H14.3768V11.3624L14.5797 15.2754H14.2609L11.5942 11.1885L4.63768 2.00005H0V21.4203H4.34783Z" fill="white"/>
<path d="M25.3793 21.4203V14.174H37.0315V10.2899H25.3793V5.9131H37.4663V2.00005H21.0315V21.4203H25.3793Z" fill="white"/>
<path d="M50.1288 21.4203V5.9131H57.3462V2.00005H38.5636V5.9131H45.781V21.4203H50.1288Z" fill="white"/>
<path d="M63.2529 21.4203V16.058H69.05C73.5428 16.058 76.4414 13.4783 76.4414 9.01454C76.4414 4.55078 73.5428 2.00005 69.05 2.00005H58.9051V21.4203H63.2529ZM68.5863 5.9131C70.9921 5.9131 72.1225 6.63773 72.1225 9.01454C72.1225 11.4493 70.9921 12.145 68.5863 12.145H63.2529V5.9131H68.5863Z" fill="white"/>
<path d="M138.79 21.4203V17.5073H127.225V2.00005H122.877V21.4203H138.79Z" fill="white"/>
<path d="M87.983 22C94.5627 22 98.5337 18.058 98.5337 12C98.5337 5.94203 94.5627 2 87.983 2C81.5482 2 77.5482 5.94203 77.5482 12C77.5482 18.058 81.5482 22 87.983 22ZM87.983 17.8261C83.7222 17.8261 82.1569 16.3188 82.1569 12C82.1569 7.68116 83.7222 6.17391 87.983 6.17391C92.2439 6.17391 93.8961 7.68116 93.8961 12C93.8961 16.3188 92.2439 17.8261 87.983 17.8261Z" fill="white"/>
<path d="M110.43 22C117.01 22 120.981 18.058 120.981 12C120.981 5.94203 117.01 2 110.43 2C103.995 2 99.995 5.94203 99.995 12C99.995 18.058 103.995 22 110.43 22ZM110.43 17.8261C106.169 17.8261 104.604 16.3188 104.604 12C104.604 7.68116 106.169 6.17391 110.43 6.17391C114.691 6.17391 116.343 7.68116 116.343 12C116.343 16.3188 114.691 17.8261 110.43 17.8261Z" fill="white"/>
<path d="M156.2 12.3965L165.214 16.32L163.534 19.02L155.064 12.7105L161.374 21.18L158.674 22.86L154.75 13.8465L155.794 23.76H152.674L153.719 13.8281L149.794 22.74L146.974 21.18L153.133 12.9114L144.934 19.02L143.254 16.32L152.301 12.3818L142.354 13.44V10.32L152.319 11.3801L143.374 7.44L144.934 4.62L152.932 10.5789L146.974 2.58L149.794 1.02L153.734 9.96514L152.674 0H155.794L154.735 9.94725L158.674 0.9L161.374 2.58L155.265 10.7798L163.534 4.62L165.094 7.44L156.182 11.3654L166.114 10.32V13.44L156.2 12.3965Z" fill="#0FDFE5"/>
</svg>
