<svg width="40" height="40" viewBox="0 0 40 40" fill="none" xmlns="http://www.w3.org/2000/svg">
<rect width="40" height="40" fill="white" fill-opacity="0.15"/>
<path fill-rule="evenodd" clip-rule="evenodd" d="M20 10C17.2833 10 16.9442 10.0125 15.8775 10.06C14.8125 10.11 14.0875 10.2775 13.45 10.525C12.7925 10.78 12.2342 11.1225 11.6783 11.6783C11.1225 12.2342 10.7792 12.7917 10.525 13.45C10.2775 14.0875 10.1092 14.8125 10.06 15.8775C10.01 16.9442 10 17.2833 10 20C10 22.7167 10.0125 23.0558 10.06 24.1225C10.11 25.1867 10.2775 25.9126 10.525 26.55C10.78 27.2067 11.1225 27.7659 11.6783 28.3217C12.2342 28.8767 12.7917 29.2209 13.45 29.475C14.0883 29.7217 14.8133 29.8909 15.8775 29.94C16.9442 29.99 17.2833 30 20 30C22.7167 30 23.0558 29.9874 24.1225 29.94C25.1867 29.89 25.9126 29.7217 26.55 29.475C27.2067 29.22 27.7659 28.8767 28.3217 28.3217C28.8767 27.7659 29.2209 27.2091 29.475 26.55C29.7217 25.9126 29.8909 25.1867 29.94 24.1225C29.99 23.0558 30 22.7167 30 20C30 17.2833 29.9874 16.9442 29.94 15.8775C29.89 14.8133 29.7217 14.0867 29.475 13.45C29.22 12.7925 28.8767 12.2342 28.3217 11.6783C27.7659 11.1225 27.2091 10.7792 26.55 10.525C25.9126 10.2775 25.1867 10.1092 24.1225 10.06C23.0558 10.01 22.7167 10 20 10ZM25.3384 15.8625C26 15.8625 26.5384 15.325 26.5384 14.6625C26.5384 14.0008 25.9991 13.4625 25.3384 13.4633C24.6767 13.4633 24.1384 14.0008 24.1384 14.6625C24.1384 15.3241 24.6759 15.8625 25.3384 15.8625ZM14.865 20C14.865 17.165 17.1625 14.865 20 14.865C22.835 14.865 25.135 17.1625 25.135 20C25.135 22.835 22.8375 25.135 20 25.135C17.165 25.135 14.865 22.8375 14.865 20ZM20 23.3334C18.1584 23.3334 16.6667 21.8417 16.6667 20.0001C16.6667 18.1584 18.1584 16.6667 20 16.6667C21.8417 16.6667 23.3334 18.1584 23.3334 20.0001C23.3334 21.8417 21.8417 23.3334 20 23.3334Z" fill="white"/>
</svg>
