<svg width="40" height="40" viewBox="0 0 40 40" fill="none" xmlns="http://www.w3.org/2000/svg">
<rect width="40" height="40" fill="white" fill-opacity="0.15"/>
<path fill-rule="evenodd" clip-rule="evenodd" d="M22.8341 13.0041H22.8471L22.8458 13L22.8341 13.0041ZM22.7898 13.0196L22.8341 13.0041H22.8058L22.7898 13.0196ZM22.7821 13.027L22.7898 13.0196L22.7686 13.027L22.7821 13.027ZM22.7821 13.027L22.5276 13.2741C25.3829 14.0844 26.7644 15.3497 26.7644 15.3497C24.9242 14.4476 23.2659 13.9966 21.6074 13.8143C20.4091 13.632 19.2107 13.7279 18.1983 13.8143H17.9229C17.2755 13.8143 15.8981 14.0844 14.0523 14.8068C13.4091 15.081 13.0399 15.2606 13.0399 15.2606C13.0399 15.2606 14.4201 13.9075 17.4614 13.185L17.2755 13.0027C17.2755 13.0027 14.9725 12.9163 12.4862 14.7177C12.4862 14.7177 10 18.9634 10 24.1976C10 24.1976 11.3774 26.5472 15.1556 26.6363C15.1556 26.6363 15.7066 25.9166 16.2645 25.2832C14.1433 24.6512 13.3168 23.3873 13.3168 23.3873C13.3168 23.3873 13.5014 23.4764 13.7782 23.6574H13.8609C13.8998 23.6574 13.9191 23.6753 13.9396 23.6943C13.9409 23.6955 13.9422 23.6967 13.9435 23.6979V23.706C13.9656 23.7276 13.9848 23.7465 14.0262 23.7465C14.0662 23.7627 14.1063 23.7788 14.1463 23.795C14.5602 23.962 14.968 24.1266 15.3072 24.2867C15.949 24.5594 16.7741 24.8309 17.7865 25.0104C19.0675 25.1928 20.5358 25.2806 22.208 25.0104L22.2614 24.9987C23.0701 24.8204 23.8787 24.6421 24.6873 24.288C24.8351 24.2137 24.9923 24.1394 25.1577 24.0612C25.5932 23.8553 26.0854 23.6226 26.6116 23.2928C26.6116 23.2928 25.7851 24.5568 23.5743 25.1888C24.0289 25.818 24.6694 26.5391 24.6694 26.5391C27.7664 26.4728 29.3116 24.8831 29.8142 24.3661C29.925 24.2521 29.9851 24.1903 30 24.2083C30 18.9823 27.5 14.7285 27.5 14.7285C25.2738 13.108 23.189 13.0286 22.7821 13.027ZM16.821 18.9633C17.7851 18.9633 18.5648 19.7736 18.5648 20.7661C18.5648 21.7654 17.7796 22.5757 16.8154 22.5757C15.8513 22.5757 15.0661 21.7654 15.0661 20.7742C15.0661 19.7749 15.8513 18.9674 16.8154 18.9674L16.821 18.9633ZM23.0786 18.9633C24.0469 18.9633 24.8279 19.7736 24.8279 20.7661C24.8279 21.7654 24.0427 22.5757 23.0786 22.5757C22.1143 22.5757 21.3292 21.7654 21.3292 20.7742C21.332 19.7749 22.1184 18.9674 23.0786 18.9674V18.9633Z" fill="white"/>
</svg>
