<svg width="40" height="40" viewBox="0 0 40 40" fill="none" xmlns="http://www.w3.org/2000/svg">
<rect width="40" height="40" fill="white" fill-opacity="0.15"/>
<g clip-path="url(#clip0_1_48)">
<path d="M29.9617 13.8079C29.2242 14.1321 28.4367 14.3529 27.6076 14.4537C28.4526 13.9446 29.1024 13.1421 29.41 12.1846C28.6176 12.6471 27.7392 12.9837 26.8042 13.1712C26.0576 12.3721 24.9933 11.8721 23.8117 11.8721C21.5474 11.8721 19.7117 13.7079 19.7117 15.9696C19.7117 16.2946 19.7492 16.6071 19.8175 16.9062C16.4092 16.7454 13.3883 15.1087 11.3667 12.6346C11.0108 13.2362 10.8117 13.9354 10.8117 14.6971C10.8117 16.1221 11.5367 17.3746 12.635 18.1104C11.9625 18.0887 11.33 17.9037 10.7783 17.5971V17.6479C10.7783 19.6354 12.1892 21.2929 14.0667 21.6704C13.7225 21.7629 13.3592 21.8129 12.9867 21.8129C12.725 21.8129 12.4742 21.7879 12.2233 21.7412C12.7492 23.3687 14.2608 24.5554 16.06 24.5887C14.66 25.6879 12.8858 26.3429 10.975 26.3429C10.65 26.3429 10.3258 26.3237 10 26.2871C11.8242 27.4487 13.9733 28.1279 16.2975 28.1279C23.8426 28.1279 27.9633 21.8812 27.9633 16.4729C27.9633 16.2987 27.9633 16.1229 27.9509 15.9479C28.7517 15.3737 29.4508 14.6479 30.0008 13.8246L29.9617 13.8079Z" fill="white"/>
</g>
<defs>
<clipPath id="clip0_1_48">
<rect width="20" height="20" fill="white" transform="translate(10 10)"/>
</clipPath>
</defs>
</svg>
