<svg width="169" height="26" viewBox="0 0 169 26" fill="none" xmlns="http://www.w3.org/2000/svg">
<path d="M4.6281 22.4203V13.058L4.45419 9.49281H4.74404L7.20781 13.145L14.3672 22.4203H19.0049V3.00005H14.6571V12.3624L14.86 16.2754H14.5411L11.8745 12.1885L4.91795 3.00005H0.280273V22.4203H4.6281Z" fill="white"/>
<path d="M25.6596 22.4203V15.174H37.3117V11.2899H25.6596V6.9131H37.7465V3.00005H21.3118V22.4203H25.6596Z" fill="white"/>
<path d="M50.4091 22.4203V6.9131H57.6265V3.00005H38.8439V6.9131H46.0613V22.4203H50.4091Z" fill="white"/>
<path d="M63.5332 22.4203V17.058H69.3303C73.8231 17.058 76.7216 14.4783 76.7216 10.0145C76.7216 5.55078 73.8231 3.00005 69.3303 3.00005H59.1854V22.4203H63.5332ZM68.8666 6.9131C71.2724 6.9131 72.4028 7.63773 72.4028 10.0145C72.4028 12.4493 71.2724 13.145 68.8666 13.145H63.5332V6.9131H68.8666Z" fill="white"/>
<path d="M139.07 22.4203V18.5073H127.505V3.00005H123.157V22.4203H139.07Z" fill="white"/>
<path d="M88.2633 23C94.843 23 98.814 19.058 98.814 13C98.814 6.94203 94.843 3 88.2633 3C81.8285 3 77.8285 6.94203 77.8285 13C77.8285 19.058 81.8285 23 88.2633 23ZM88.2633 18.8261C84.0024 18.8261 82.4372 17.3188 82.4372 13C82.4372 8.68116 84.0024 7.17391 88.2633 7.17391C92.5242 7.17391 94.1763 8.68116 94.1763 13C94.1763 17.3188 92.5242 18.8261 88.2633 18.8261Z" fill="white"/>
<path d="M110.71 23C117.29 23 121.261 19.058 121.261 13C121.261 6.94203 117.29 3 110.71 3C104.275 3 100.275 6.94203 100.275 13C100.275 19.058 104.275 23 110.71 23ZM110.71 18.8261C106.449 18.8261 104.884 17.3188 104.884 13C104.884 8.68116 106.449 7.17391 110.71 7.17391C114.971 7.17391 116.623 8.68116 116.623 13C116.623 17.3188 114.971 18.8261 110.71 18.8261Z" fill="white"/>
<path d="M152.712 4.5C152.712 10.438 157.524 15.25 163.462 15.25C157.524 15.25 152.712 20.062 152.712 26C152.712 20.062 147.9 15.25 141.962 15.25C147.9 15.25 152.712 10.438 152.712 4.5Z" fill="#D331BB"/>
<path d="M163.213 0C163.213 3.17615 165.786 5.75 168.963 5.75C165.786 5.75 163.213 8.32386 163.213 11.5C163.213 8.32386 160.639 5.75 157.463 5.75C160.639 5.75 163.213 3.17615 163.213 0Z" fill="#0FDFE5"/>
</svg>
