<svg width="45" height="45" viewBox="0 0 45 45" fill="none" xmlns="http://www.w3.org/2000/svg">
<path fill-rule="evenodd" clip-rule="evenodd" d="M24.8193 24.6259L22.5922 38.0915L20.3651 24.6259L6.84433 22.4079L20.3651 20.1899L22.5922 6.72431L24.8193 20.1899L38.3401 22.4079L24.8193 24.6259ZM42.8791 22.4079L25.4612 19.5506L22.5922 2.20384L19.7232 19.5506L2.30533 22.4079L19.7232 25.2652L22.5922 42.612L25.4612 25.2652L42.8791 22.4079Z" fill="white"/>
<path fill-rule="evenodd" clip-rule="evenodd" d="M26.9402 22.4218L24.7131 35.8874L22.486 22.4218L8.96523 20.2038L22.486 17.9858L24.7131 4.52023L26.9402 17.9858L40.461 20.2038L26.9402 22.4218ZM45 20.2038L27.5821 17.3465L24.7131 -0.000244141L21.8441 17.3465L4.42623 20.2038L21.8441 23.0611L24.7131 40.4079L27.5821 23.0611L45 20.2038Z" fill="white"/>
<path d="M20.2869 44.9998L23.1559 27.653L40.5738 24.7957L23.1559 21.9384L20.2869 4.59159L17.4179 21.9384L0 24.7957L17.4179 27.653L20.2869 44.9998Z" fill="white"/>
</svg>
